<?xml version="1.0" encoding="utf-8"?>
<!-- Generator: Adobe Illustrator 22.0.1, SVG Export Plug-In . SVG Version: 6.00 Build 0)  -->
<svg version="1.1" id="Layer_1" xmlns="http://www.w3.org/2000/svg" xmlns:xlink="http://www.w3.org/1999/xlink" x="0px" y="0px"
	 viewBox="0 0 157.4 34.3" style="enable-background:new 0 0 157.4 34.3;" xml:space="preserve">
<style type="text/css">
	.st0{fill:#9B0606;}
</style>
<g>
	<path class="st0" d="M15.8,7.5h-0.5c0-1.4-0.5-2.8-1.4-4C13,2.2,11.6,1.6,9.9,1.6c-1,0-1.7,0.6-2.4,1.7S6.6,6.3,6.6,9
		c0,2.7,0.3,4.6,0.9,5.7c0.6,1.1,1.6,1.7,2.9,1.7c1.3,0,2.4-0.4,3.3-1.2c0.9-0.8,1.5-2,1.7-3.5h0.5c-0.3,1.8-0.9,3.1-1.9,4
		S12,17,10.6,17c-2.7,0-4.7-0.6-6.2-1.9C3,13.7,2.3,11.7,2.3,9c0-2.7,0.7-4.7,2.1-6c1.4-1.3,3.2-1.9,5.5-1.9c1.2,0,2.4,0.3,3.6,1
		c0.4,0.2,0.7,0.4,0.9,0.4c0.2,0,0.4-0.1,0.6-0.3s0.2-0.4,0.2-0.7h0.5V7.5z"/>
	<path class="st0" d="M33.4,16v0.5h-7.1V16h1.6l-1.8-3.8h-5.5L19.1,16h2.1v0.5h-4.6V16h1.8l6.2-14.9h0.7L32.1,16H33.4z M20.9,11.7
		h4.9l-2.6-5.5L20.9,11.7z"/>
	<path class="st0" d="M41.1,16v0.5h-6.8V16h1.4V2h-1.4V1.4h5.4c5.3-0.3,7.9,1.4,7.9,5.1c0,1.6-0.7,2.9-2,3.7
		c-1.3,0.8-3.3,1.2-5.9,1.1V16H41.1z M39.8,2v8.8c1.5,0,2.5-0.3,3-1c0.5-0.6,0.8-1.8,0.8-3.4c0-1.6-0.3-2.7-0.8-3.4
		C42.3,2.3,41.2,2,39.8,2z"/>
	<path class="st0" d="M64.3,9.1c0,2.5-0.7,4.4-2.2,5.7s-3.4,2-5.7,2c-2.3,0-4.2-0.7-5.7-2c-1.4-1.3-2.2-3.2-2.2-5.7
		c0-2.5,0.7-4.4,2.2-5.9c1.4-1.4,3.4-2.2,5.7-2.2c2.4,0,4.3,0.7,5.7,2.1C63.6,4.7,64.3,6.6,64.3,9.1z M59.1,3.6
		c-0.6-1.3-1.5-1.9-2.6-1.9c-1.1,0-1.9,0.6-2.6,1.9C53.3,4.9,53,6.7,53,9c0,2.3,0.3,4.1,0.9,5.4c0.6,1.3,1.5,1.9,2.6,1.9
		c2.3,0,3.5-2.4,3.5-7.3C60,6.7,59.7,4.9,59.1,3.6z"/>
	<path class="st0" d="M77.7,16.6H71V16h1.4V2H71V1.4h6.8c1.3,0,2.5,0.2,3.6,0.7c1.1,0.4,1.9,1,2.6,1.7c1.4,1.5,2,3.2,2,5.1
		c0,2.6-0.7,4.5-2,5.7C82.6,15.9,80.5,16.6,77.7,16.6z M76.4,16c1.9,0,3.3-0.5,4.2-1.6c0.9-1.1,1.3-2.8,1.3-5.2s-0.5-4.2-1.4-5.4
		C79.5,2.6,78.2,2,76.4,2V16z"/>
	<path class="st0" d="M93.9,16.6h-6.8V16h1.4V2h-1.4V1.4h6.8V2h-1.3v14h1.3V16.6z"/>
	<path class="st0" d="M114.2,7.5h-0.5c0-1.4-0.5-2.8-1.4-4c-0.9-1.2-2.2-1.8-3.9-1.8c-1,0-1.7,0.6-2.4,1.7S105,6.3,105,9
		c0,2.7,0.3,4.6,0.9,5.7c0.6,1.1,1.6,1.7,2.9,1.7c1.3,0,2.4-0.4,3.3-1.2c0.9-0.8,1.5-2,1.7-3.5h0.5c-0.3,1.8-0.9,3.1-1.9,4
		S110.4,17,109,17c-2.7,0-4.7-0.6-6.2-1.9c-1.4-1.3-2.1-3.3-2.1-6c0-2.7,0.7-4.7,2.1-6c1.4-1.3,3.2-1.9,5.5-1.9c1.2,0,2.4,0.3,3.6,1
		c0.4,0.2,0.7,0.4,0.9,0.4s0.4-0.1,0.6-0.3c0.1-0.2,0.2-0.4,0.2-0.7h0.5V7.5z"/>
	<path class="st0" d="M122.5,16.6h-6.8V16h1.3V2h-1.3V1.4h6.8V2h-1.3v14h1.3V16.6z"/>
	<path class="st0" d="M124.3,16.6V16h1.3V2h-1.3V1.4h6.8c2.2,0,3.9,0.3,4.9,1c1.1,0.7,1.6,1.6,1.6,2.8c0,1-0.3,1.7-0.9,2.3
		c-0.6,0.6-1.5,0.9-2.5,0.9v0.2c1.3,0,2.4,0.3,3.3,1c0.9,0.7,1.3,1.7,1.3,3c0,1.3-0.5,2.2-1.5,2.9c-1,0.7-2.5,1-4.4,1H124.3z
		 M129.7,8.3h0.8c2.2,0,3.3-1,3.3-3.1c0-2.1-1.1-3.2-3.3-3.2h-0.8V8.3z M129.7,16h1.5c1.1,0,1.9-0.3,2.6-0.8s0.9-1.4,0.9-2.4
		c0-1.5-0.4-2.5-1.1-3.1s-1.8-0.8-3.1-0.8h-0.9V16z"/>
	<path class="st0" d="M155.1,9.1c0,2.5-0.7,4.4-2.2,5.7s-3.4,2-5.7,2s-4.2-0.7-5.7-2c-1.4-1.3-2.2-3.2-2.2-5.7
		c0-2.5,0.7-4.4,2.2-5.9c1.4-1.4,3.4-2.2,5.7-2.2c2.4,0,4.3,0.7,5.7,2.1C154.4,4.7,155.1,6.6,155.1,9.1z M149.9,3.6
		c-0.6-1.3-1.5-1.9-2.6-1.9s-1.9,0.6-2.6,1.9s-0.9,3.1-0.9,5.4c0,2.3,0.3,4.1,0.9,5.4c0.6,1.3,1.5,1.9,2.6,1.9
		c2.3,0,3.5-2.4,3.5-7.3C150.8,6.7,150.5,4.9,149.9,3.6z"/>
</g>
<g>
	<path class="st0" d="M12.5,19.8v0.7h-0.9v3h-0.7v-3H10v-0.7H12.5z"/>
	<path class="st0" d="M16.2,23.4l-0.8-1.2h-0.5v1.2h-0.7v-3.7h1.1c0.5,0,0.8,0.1,1.1,0.3c0.3,0.2,0.4,0.5,0.4,0.9
		c0,0.2,0,0.4-0.1,0.6c-0.1,0.2-0.2,0.4-0.4,0.5l0.9,1.3H16.2z M14.9,21.6h0.5c0.2,0,0.3-0.1,0.4-0.2C16,21.3,16,21.2,16,21
		c0-0.1,0-0.3-0.1-0.4c-0.1-0.1-0.2-0.2-0.4-0.2h-0.5V21.6z"/>
	<path class="st0" d="M20.5,22.7h-1.2l-0.3,0.7h-0.7l1.7-3.8h0l1.7,3.8h-0.8L20.5,22.7z M20.2,22.1l-0.4-0.9l-0.4,0.9H20.2z"/>
	<path class="st0" d="M23.1,19.8h1.1c0.5,0,0.9,0.1,1.2,0.3s0.5,0.4,0.7,0.7c0.1,0.3,0.2,0.6,0.2,0.9c0,0.4-0.1,0.7-0.3,0.9
		c-0.2,0.3-0.4,0.5-0.7,0.6c-0.3,0.1-0.6,0.2-0.9,0.2h-1.3V19.8z M24.3,22.7c0.4,0,0.7-0.1,0.9-0.3c0.2-0.2,0.3-0.5,0.3-0.8
		c0-0.3-0.1-0.5-0.2-0.7c-0.1-0.2-0.3-0.3-0.4-0.4s-0.3-0.1-0.5-0.1h-0.6v2.3H24.3z"/>
	<path class="st0" d="M28.7,19.8v3.7H28v-3.7H28.7z"/>
	<path class="st0" d="M32.9,19.8v0.7H32v3h-0.7v-3h-0.9v-0.7H32.9z"/>
	<path class="st0" d="M35.3,19.8v3.7h-0.7v-3.7H35.3z"/>
	<path class="st0" d="M37.3,20.7c0.2-0.3,0.4-0.5,0.7-0.7c0.3-0.2,0.6-0.3,0.9-0.3c0.3,0,0.6,0.1,0.9,0.3c0.3,0.2,0.5,0.4,0.7,0.7
		c0.2,0.3,0.3,0.6,0.3,0.9c0,0.3-0.1,0.7-0.3,0.9c-0.2,0.3-0.4,0.5-0.7,0.7c-0.3,0.2-0.6,0.3-0.9,0.3c-0.3,0-0.7-0.1-0.9-0.3
		c-0.3-0.2-0.5-0.4-0.7-0.7c-0.2-0.3-0.3-0.6-0.3-0.9C37,21.3,37.1,21,37.3,20.7z M37.9,22.2c0.1,0.2,0.2,0.3,0.4,0.4
		c0.2,0.1,0.4,0.2,0.6,0.2c0.2,0,0.4-0.1,0.6-0.2c0.2-0.1,0.3-0.2,0.4-0.4C40,22,40,21.8,40,21.6c0-0.2,0-0.4-0.1-0.6
		c-0.1-0.2-0.2-0.3-0.4-0.4c-0.2-0.1-0.4-0.2-0.6-0.2s-0.4,0.1-0.6,0.2c-0.2,0.1-0.3,0.2-0.4,0.4c-0.1,0.2-0.1,0.4-0.1,0.6
		C37.8,21.8,37.8,22,37.9,22.2z"/>
	<path class="st0" d="M45.8,19.8v3.8h0l-2.6-2.3l0,2.2h-0.7v-3.8h0l2.6,2.4l0-2.2H45.8z"/>
	<path class="st0" d="M49.6,22.7h-1.2l-0.3,0.7h-0.7l1.7-3.8h0l1.7,3.8h-0.8L49.6,22.7z M49.4,22.1L49,21.2l-0.4,0.9H49.4z"/>
	<path class="st0" d="M53,19.8v3h1.7v0.7h-2.5v-3.7H53z"/>
	<path class="st0" d="M59.8,19.8v3.7h-0.7v-3.7H59.8z"/>
	<path class="st0" d="M64,19.8v0.7h-0.9v3h-0.7v-3h-0.9v-0.7H64z"/>
	<path class="st0" d="M67.2,22.7H66l-0.3,0.7H65l1.7-3.8h0l1.7,3.8h-0.8L67.2,22.7z M67,22.1l-0.4-0.9l-0.4,0.9H67z"/>
	<path class="st0" d="M70.6,19.8v3h1.7v0.7h-2.5v-3.7H70.6z"/>
	<path class="st0" d="M74.8,19.8v3.7h-0.7v-3.7H74.8z"/>
	<path class="st0" d="M78.6,22.7h-1.2l-0.3,0.7h-0.7l1.7-3.8h0l1.7,3.8h-0.8L78.6,22.7z M78.3,22.1L78,21.2l-0.4,0.9H78.3z"/>
	<path class="st0" d="M84.6,19.8v3.8h0L82,21.3l0,2.2h-0.7v-3.8h0l2.6,2.4l0-2.2H84.6z"/>
	<path class="st0" d="M91.3,20.1c0.2,0.2,0.4,0.5,0.4,0.9c0,0.2,0,0.4-0.1,0.6c-0.1,0.2-0.2,0.3-0.4,0.5c-0.2,0.1-0.4,0.2-0.7,0.2
		h-0.5v1.2h-0.7v-3.7h1.1C90.7,19.8,91,19.9,91.3,20.1z M90.7,21.5c0.1-0.1,0.1-0.1,0.2-0.2c0-0.1,0.1-0.2,0.1-0.2
		c0-0.1,0-0.3-0.1-0.4c-0.1-0.1-0.2-0.2-0.4-0.2h-0.5v1.1h0.5C90.5,21.6,90.6,21.5,90.7,21.5z"/>
	<path class="st0" d="M94.8,22.7h-1.2l-0.3,0.7h-0.7l1.7-3.8h0l1.7,3.8H95L94.8,22.7z M94.5,22.1l-0.4-0.9l-0.4,0.9H94.5z"/>
	<path class="st0" d="M98.5,20.4c-0.2,0-0.3,0-0.4,0.1S98,20.6,98,20.8c0,0.1,0.1,0.2,0.2,0.3c0.1,0.1,0.3,0.2,0.5,0.3
		c0.2,0.1,0.3,0.1,0.4,0.2s0.2,0.2,0.3,0.3c0.1,0.1,0.1,0.3,0.1,0.5c0,0.2,0,0.4-0.1,0.5c-0.1,0.2-0.2,0.3-0.4,0.4
		c-0.2,0.1-0.4,0.1-0.7,0.1c-0.2,0-0.4,0-0.7-0.1c-0.2-0.1-0.4-0.2-0.6-0.3l0.3-0.6c0.1,0.1,0.3,0.2,0.4,0.2
		c0.2,0.1,0.3,0.1,0.4,0.1c0.2,0,0.3,0,0.4-0.1c0.1-0.1,0.2-0.2,0.2-0.3c0-0.2-0.2-0.4-0.5-0.5c-0.2-0.1-0.4-0.2-0.5-0.2
		c-0.1-0.1-0.3-0.2-0.4-0.3c-0.1-0.1-0.2-0.3-0.2-0.5c0-0.3,0.1-0.6,0.3-0.8c0.2-0.2,0.5-0.3,0.8-0.3c0.3,0,0.5,0,0.7,0.1
		c0.2,0.1,0.4,0.1,0.5,0.3l-0.3,0.6C99.1,20.5,98.8,20.4,98.5,20.4z"/>
	<path class="st0" d="M103.6,19.8v0.7h-0.9v3h-0.7v-3h-0.9v-0.7H103.6z"/>
	<path class="st0" d="M106.8,22.7h-1.2l-0.3,0.7h-0.7l1.7-3.8h0l1.7,3.8h-0.8L106.8,22.7z M106.5,22.1l-0.4-0.9l-0.4,0.9H106.5z"/>
	<path class="st0" d="M110.6,20.4c-0.2,0-0.3,0-0.4,0.1s-0.1,0.2-0.1,0.3c0,0.1,0.1,0.2,0.2,0.3c0.1,0.1,0.3,0.2,0.5,0.3
		c0.2,0.1,0.3,0.1,0.4,0.2s0.2,0.2,0.3,0.3c0.1,0.1,0.1,0.3,0.1,0.5c0,0.2,0,0.4-0.1,0.5c-0.1,0.2-0.2,0.3-0.4,0.4
		c-0.2,0.1-0.4,0.1-0.7,0.1c-0.2,0-0.4,0-0.7-0.1c-0.2-0.1-0.4-0.2-0.6-0.3l0.3-0.6c0.1,0.1,0.3,0.2,0.4,0.2
		c0.2,0.1,0.3,0.1,0.4,0.1c0.2,0,0.3,0,0.4-0.1c0.1-0.1,0.2-0.2,0.2-0.3c0-0.2-0.2-0.4-0.5-0.5c-0.2-0.1-0.4-0.2-0.5-0.2
		c-0.1-0.1-0.3-0.2-0.4-0.3c-0.1-0.1-0.2-0.3-0.2-0.5c0-0.3,0.1-0.6,0.3-0.8c0.2-0.2,0.5-0.3,0.8-0.3c0.3,0,0.5,0,0.7,0.1
		c0.2,0.1,0.4,0.1,0.5,0.3l-0.3,0.6C111.1,20.5,110.8,20.4,110.6,20.4z"/>
	<path class="st0" d="M118.2,23.4l-0.3-0.4c-0.1,0.1-0.2,0.2-0.4,0.3s-0.4,0.1-0.6,0.1c-0.2,0-0.4,0-0.6-0.1
		c-0.2-0.1-0.3-0.2-0.4-0.4s-0.2-0.4-0.2-0.6c0-0.2,0.1-0.5,0.3-0.7s0.4-0.3,0.6-0.4l0,0c-0.1-0.1-0.1-0.2-0.2-0.4
		c-0.1-0.1-0.1-0.3-0.1-0.4c0-0.1,0-0.3,0.1-0.4c0.1-0.1,0.2-0.2,0.3-0.3c0.1-0.1,0.3-0.1,0.5-0.1c0.2,0,0.4,0,0.6,0.1
		s0.3,0.2,0.4,0.4l-0.4,0.5c-0.1-0.1-0.2-0.2-0.3-0.3c-0.1-0.1-0.2-0.1-0.3-0.1c-0.1,0-0.2,0-0.2,0.1c-0.1,0.1-0.1,0.1-0.1,0.2
		c0,0.1,0.1,0.2,0.2,0.4l0.7,0.9l0.3-0.6h0.7l-0.5,1.2l0.8,1H118.2z M117.6,22.6l-0.6-0.8c-0.1,0-0.3,0.1-0.4,0.2
		c-0.1,0.1-0.1,0.2-0.1,0.4c0,0.2,0.1,0.3,0.2,0.4s0.3,0.1,0.4,0.1C117.3,22.8,117.5,22.8,117.6,22.6z"/>
	<path class="st0" d="M124.4,20.4c-0.2,0-0.3,0-0.4,0.1s-0.1,0.2-0.1,0.3c0,0.1,0.1,0.2,0.2,0.3c0.1,0.1,0.3,0.2,0.5,0.3
		c0.2,0.1,0.3,0.1,0.4,0.2s0.2,0.2,0.3,0.3c0.1,0.1,0.1,0.3,0.1,0.5c0,0.2,0,0.4-0.1,0.5c-0.1,0.2-0.2,0.3-0.4,0.4
		c-0.2,0.1-0.4,0.1-0.7,0.1c-0.2,0-0.4,0-0.7-0.1c-0.2-0.1-0.4-0.2-0.6-0.3l0.3-0.6c0.1,0.1,0.3,0.2,0.4,0.2
		c0.2,0.1,0.3,0.1,0.4,0.1c0.2,0,0.3,0,0.4-0.1c0.1-0.1,0.2-0.2,0.2-0.3c0-0.2-0.2-0.4-0.5-0.5c-0.2-0.1-0.4-0.2-0.5-0.2
		c-0.1-0.1-0.3-0.2-0.4-0.3c-0.1-0.1-0.2-0.3-0.2-0.5c0-0.3,0.1-0.6,0.3-0.8c0.2-0.2,0.5-0.3,0.8-0.3c0.3,0,0.5,0,0.7,0.1
		c0.2,0.1,0.4,0.1,0.5,0.3l-0.3,0.6C124.9,20.5,124.7,20.4,124.4,20.4z"/>
	<path class="st0" d="M129,22.7h-1.2l-0.3,0.7h-0.7l1.7-3.8h0l1.7,3.8h-0.8L129,22.7z M128.8,22.1l-0.4-0.9l-0.4,0.9H128.8z"/>
	<path class="st0" d="M132.3,22.4c0.1,0.1,0.2,0.2,0.3,0.3c0.1,0.1,0.2,0.1,0.4,0.1c0.1,0,0.3,0,0.4-0.1c0.1-0.1,0.2-0.2,0.3-0.3
		c0.1-0.1,0.1-0.2,0.1-0.3v-2.3h0.7v2.3c0,0.3-0.1,0.5-0.2,0.7c-0.1,0.2-0.3,0.4-0.5,0.5s-0.5,0.2-0.8,0.2s-0.5-0.1-0.8-0.2
		s-0.4-0.3-0.5-0.5c-0.1-0.2-0.2-0.4-0.2-0.7v-2.3h0.7v2.3C132.2,22.2,132.3,22.3,132.3,22.4z"/>
	<path class="st0" d="M138.7,23.4c-0.2,0.1-0.4,0.1-0.7,0.1c-0.4,0-0.7-0.1-1-0.3s-0.5-0.4-0.7-0.7c-0.1-0.3-0.2-0.6-0.2-0.9
		c0-0.4,0.1-0.7,0.2-1c0.2-0.3,0.4-0.5,0.6-0.7c0.3-0.2,0.6-0.2,0.9-0.2c0.2,0,0.4,0,0.6,0.1c0.2,0.1,0.4,0.1,0.5,0.2l-0.3,0.7
		c-0.3-0.2-0.5-0.3-0.8-0.3c-0.2,0-0.4,0.1-0.5,0.2s-0.3,0.2-0.4,0.4s-0.1,0.4-0.1,0.6c0,0.2,0,0.4,0.1,0.6c0.1,0.2,0.2,0.3,0.4,0.4
		c0.2,0.1,0.4,0.1,0.6,0.1c0.2,0,0.3,0,0.5-0.1c0.1-0.1,0.3-0.1,0.3-0.2l0.3,0.7C139,23.2,138.9,23.3,138.7,23.4z"/>
	<path class="st0" d="M143.3,19.8v0.7h-1.8v0.8h1.6v0.7h-1.6v0.8h1.9v0.7h-2.6v-3.7H143.3z"/>
	<path class="st0" d="M146.3,20.4c-0.2,0-0.3,0-0.4,0.1s-0.1,0.2-0.1,0.3c0,0.1,0.1,0.2,0.2,0.3c0.1,0.1,0.3,0.2,0.5,0.3
		c0.2,0.1,0.3,0.1,0.4,0.2s0.2,0.2,0.3,0.3c0.1,0.1,0.1,0.3,0.1,0.5c0,0.2,0,0.4-0.1,0.5c-0.1,0.2-0.2,0.3-0.4,0.4
		c-0.2,0.1-0.4,0.1-0.7,0.1c-0.2,0-0.4,0-0.7-0.1c-0.2-0.1-0.4-0.2-0.6-0.3l0.3-0.6c0.1,0.1,0.3,0.2,0.4,0.2
		c0.2,0.1,0.3,0.1,0.4,0.1c0.2,0,0.3,0,0.4-0.1c0.1-0.1,0.2-0.2,0.2-0.3c0-0.2-0.2-0.4-0.5-0.5c-0.2-0.1-0.4-0.2-0.5-0.2
		c-0.1-0.1-0.3-0.2-0.4-0.3c-0.1-0.1-0.2-0.3-0.2-0.5c0-0.3,0.1-0.6,0.3-0.8c0.2-0.2,0.5-0.3,0.8-0.3c0.3,0,0.5,0,0.7,0.1
		c0.2,0.1,0.4,0.1,0.5,0.3l-0.3,0.6C146.8,20.5,146.5,20.4,146.3,20.4z"/>
</g>
<g id="_x31_">
	<g>
		<g>
			<path class="st0" d="M78,30.6c-0.5,0.7-1.9,1.1-2.6,0c-0.8-1.1,0-1.8,0-1.8c0.4,1.2,1.7,1.2,2.1,0.6c0.4-0.6-0.2-1.2-0.2-1.2l0,0
				c-0.4-0.4-1-0.7-2-0.6c-0.7,0-1.2,0.2-1.6,0.4l0,0c0,0-1.9,1.2-3.3,0.6c-1.5-0.5-1.3-1.3-2.9-1.2c0,0,1.2-1,2.8-0.6
				c1.3,0.3,2.2,0.8,3,0.9c0,0,0,0,0,0c0.5-0.2,1-0.4,2-0.5c0.1,0,0.2,0,0.3,0c0.6,0,1.1,0.2,1.5,0.4l0,0
				C78.7,28.4,78.6,29.8,78,30.6z"/>
			<path class="st0" d="M87.1,28.6c-1.5,0.5-3.3-0.6-3.3-0.6l0,0c-0.4-0.2-0.9-0.3-1.6-0.4c-1-0.1-1.6,0.3-2,0.6l0,0
				c0,0-0.6,0.6-0.2,1.2c0.4,0.6,1.7,0.6,2.1-0.6c0,0,0.8,0.7,0,1.8c-0.8,1.1-2.1,0.7-2.6,0c-0.6-0.8-0.8-2.2,1-3l0,0
				c0.4-0.2,0.9-0.4,1.5-0.4c0.1,0,0.2,0,0.3,0c0.9,0.1,1.5,0.3,2,0.5c0,0,0,0,0,0c0.9-0.1,1.7-0.6,3-0.9c1.7-0.4,2.8,0.6,2.8,0.6
				C88.4,27.3,88.6,28.1,87.1,28.6z"/>
		</g>
		<path class="st0" d="M77.7,31.8c0,0.6,1,1.6,1,1.6s1-1,1-1.6c0-0.6-1-1.2-1-1.8C78.7,30.5,77.7,31.2,77.7,31.8z"/>
	</g>
	<g>
		<path class="st0" d="M66.5,26.9c0,0.5-0.8,0.6-2.4,0.6C62.5,27.5,3,26.9,3,26.9s59.5-0.5,61.1-0.5C65.7,26.3,66.5,26.4,66.5,26.9z
			"/>
		<path class="st0" d="M90.9,26.9c0,0.5,0.8,0.6,2.4,0.6c1.6,0,61.1-0.6,61.1-0.6S95,26.3,93.4,26.3C91.8,26.3,90.9,26.4,90.9,26.9z
			"/>
	</g>
</g>
</svg>
